<?xml version="1.0" encoding="UTF-8" standalone="no"?>
<!-- Created with Inkscape (http://www.inkscape.org/) -->

<svg
   xmlns:osb="http://www.openswatchbook.org/uri/2009/osb"
   xmlns:dc="http://purl.org/dc/elements/1.1/"
   xmlns:cc="http://creativecommons.org/ns#"
   xmlns:rdf="http://www.w3.org/1999/02/22-rdf-syntax-ns#"
   xmlns:svg="http://www.w3.org/2000/svg"
   xmlns="http://www.w3.org/2000/svg"
   xmlns:sodipodi="http://sodipodi.sourceforge.net/DTD/sodipodi-0.dtd"
   xmlns:inkscape="http://www.inkscape.org/namespaces/inkscape"
   version="1.1"
   id="svg80"
   width="135.73331"
   height="44.39999"
   viewBox="0 0 135.73331 44.39999"
   sodipodi:docname="app_store_alt.svg"
   inkscape:version="0.92.2 2405546, 2018-03-11"
   inkscape:export-filename="/home/pcj/dev/ubank_app/src/img/aunNoTienes/app_store_alt.svg.png"
   inkscape:export-xdpi="9"
   inkscape:export-ydpi="9">
  <metadata
     id="metadata86">
    <rdf:RDF>
      <cc:Work
         rdf:about="">
        <dc:format>image/svg+xml</dc:format>
        <dc:type
           rdf:resource="http://purl.org/dc/dcmitype/StillImage" />
        <dc:title></dc:title>
      </cc:Work>
    </rdf:RDF>
  </metadata>
  <defs
     id="defs84">
    <linearGradient
       id="linearGradient900"
       osb:paint="solid">
      <stop
         style="stop-color:#757a7d;stop-opacity:1;"
         offset="0"
         id="stop898" />
    </linearGradient>
  </defs>
  <sodipodi:namedview
     pagecolor="#ffffff"
     bordercolor="#666666"
     borderopacity="1"
     objecttolerance="10"
     gridtolerance="10"
     guidetolerance="10"
     inkscape:pageopacity="0"
     inkscape:pageshadow="2"
     inkscape:window-width="1366"
     inkscape:window-height="713"
     id="namedview82"
     showgrid="false"
     inkscape:zoom="3.1423883"
     inkscape:cx="66.869929"
     inkscape:cy="18.93244"
     inkscape:window-x="1920"
     inkscape:window-y="312"
     inkscape:window-maximized="1"
     inkscape:current-layer="layer1" />
  <g
     inkscape:groupmode="layer"
     id="layer1"
     inkscape:label="Layer 1"
     style="display:inline">
    <rect
       style="fill:#ffffff;fill-opacity:1;stroke:#757a7d;stroke-width:0;stroke-miterlimit:0;stroke-dasharray:none;stroke-opacity:1"
       id="rect73"
       width="127.60995"
       height="39.77866"
       x="5.0916686"
       y="1.4390359" />
  </g>
  <path
     style="fill:#757a7d;fill-opacity:1;stroke-width:1.33333337"
     d=""
     id="path906"
     inkscape:connector-curvature="0" />
  <path
     style="fill:#000000;fill-opacity:1;stroke:#757a7d;stroke-width:0;stroke-miterlimit:0;stroke-dasharray:none;stroke-opacity:1"
     d="M 4.806471,44.089114 C 2.5294908,43.526404 0.96070471,42.030364 0.31367001,39.804644 0.06120863,38.936204 0.03431829,36.900324 0.07739894,21.916494 L 0.12601235,5.0083139 0.53716837,3.9914339 c 0.67198693,-1.66197 2.40823713,-3.22444 3.99927623,-3.59899 0.8167353,-0.19227 126.0432054,-0.18618 127.0337754,0.006 0.94895,0.18427 2.34875,1.17959 2.95496,2.10109 1.12652,1.71245 1.0641,0.56286 1.0641,19.5979001 0,17.232 -0.003,17.35892 -0.38067,18.3468 -0.44028,1.15053 -1.72506,2.59887 -2.78512,3.13967 -0.3938,0.2009 -1.1941,0.45366 -1.77845,0.56168 -1.62829,0.301 -124.6153619,0.24564 -125.838569,-0.0566 z m 45.972005,-4.3599 0.562554,-0.11251 v -2.89146 -2.89146 l 0.495049,0.45923 c 0.650031,0.603 1.487129,0.86825 2.740063,0.86825 1.470041,0 2.601346,-0.4454 3.555942,-1.4 0.976366,-0.97636 1.406743,-1.88958 1.702021,-3.61151 0.502586,-2.93085 -0.656915,-5.7748 -2.822519,-6.92292 -0.571832,-0.30316 -1.022296,-0.37922 -2.188143,-0.36949 -1.561462,0.013 -2.236955,0.2744 -3.347399,1.29517 l -0.495048,0.45507 -0.0024,-0.43872 c -0.0064,-1.1356 -0.130439,-1.2488 -1.36868,-1.2488 h -1.14912 v 8.35887 8.35886 l 0.495049,0.075 c 0.851876,0.12905 1.241994,0.13257 1.822679,0.0164 z m 13.358736,-0.16674 c 0.0908,-0.0561 0.165089,-1.32225 0.165089,-2.81363 v -2.7116 l 0.405039,0.2938 c 0.730581,0.52994 1.288198,0.70529 2.505204,0.78779 1.601182,0.10856 2.778203,-0.28784 3.75495,-1.26459 0.904387,-0.90438 1.29765,-1.65348 1.682524,-3.20492 0.367541,-1.48157 0.36759,-2.09528 4e-4,-3.57735 -0.351929,-1.42002 -0.613794,-1.96161 -1.358642,-2.80995 -0.917951,-1.04549 -1.809374,-1.40566 -3.479018,-1.40566 -1.628365,0 -2.591976,0.37221 -3.376074,1.30406 l -0.451072,0.53607 -0.117825,-0.88822 -0.117827,-0.88821 h -1.163913 -1.163914 v 8.35887 8.35886 l 0.495048,0.0838 c 0.562668,0.0953 1.971872,-0.006 2.220145,-0.15917 z m -39.377413,-3.19683 c 1.34145,-1.02362 1.28253,-0.37451 1.285815,-14.16565 0.0028,-11.67597 -0.01482,-12.3637801 -0.33123,-12.9443301 -0.965963,-1.77233 -1.158508,-1.81711 -7.812708,-1.81711 -5.398793,0 -5.569529,0.0109 -6.340865,0.40504 -0.435974,0.22277 -0.959439,0.63375 -1.163255,0.91329 -0.365933,0.50188 -0.370574,0.67024 -0.370574,13.4431101 0,12.8424 0.0027,12.93851 0.376588,13.44312 0.207123,0.27954 0.64886,0.69353 0.981637,0.91998 0.604788,0.41155 0.607674,0.4117 6.658402,0.36003 l 6.053353,-0.0517 z m 59.045261,-1.45925 c 1.373404,-0.35772 1.965388,-0.7015 2.713958,-1.57603 0.728772,-0.85141 1.074111,-1.82545 1.074111,-3.02957 0,-2.15704 -1.005363,-3.46161 -3.605045,-4.67796 -2.519533,-1.17886 -2.780276,-1.32671 -3.142551,-1.78195 -0.426244,-0.53562 -0.45149,-1.76399 -0.04809,-2.33992 0.659655,-0.94179 2.603497,-1.1941 4.465924,-0.57968 l 1.034992,0.34145 0.2509,-0.60049 c 0.137994,-0.33026 0.272129,-0.86328 0.298079,-1.18448 0.04577,-0.56661 0.01501,-0.59412 -1.032927,-0.92412 -1.457334,-0.45892 -4.123688,-0.37351 -5.332555,0.17081 -1.805577,0.813 -2.858248,2.31261 -2.858248,4.07178 0,2.09492 1.00088,3.22956 4.243596,4.81072 1.301182,0.63446 2.357134,1.26963 2.517431,1.51428 0.722205,1.10222 0.377266,2.70744 -0.709706,3.3027 -0.857723,0.46971 -3.331872,0.3917 -4.57585,-0.14427 -1.037484,-0.44701 -1.13872,-0.4105 -1.450902,0.52323 -0.266804,0.79802 -0.259709,1.40297 0.01847,1.57489 1.129849,0.69829 4.404373,0.98028 6.138415,0.52861 z m 11.007949,0.0757 c 0.436844,-0.16608 0.467231,-0.24812 0.416759,-1.12511 l -0.05444,-0.94596 -0.966693,-0.097 c -1.594864,-0.1601 -1.643563,-0.2885 -1.643563,-4.33333 v -3.40039 h 1.449125 1.449125 l -0.05399,-1.03511 -0.05399,-1.0351 -1.395136,-0.0526 -1.395137,-0.0526 v -1.31256 c 0,-0.7219 -0.04375,-1.3563 -0.09721,-1.40977 -0.05347,-0.0535 -0.661027,0.0673 -1.350132,0.26828 l -1.25292,0.3655 v 1.04198 1.04199 l -0.855084,0.0549 -0.855083,0.0549 -0.05399,1.0351 -0.05399,1.03511 h 0.909072 0.909071 l 0.004,3.82537 c 0.0034,3.3253 0.04718,3.91951 0.334611,4.54545 0.381971,0.83181 0.791973,1.22618 1.551621,1.49244 0.70055,0.24556 2.4554,0.26769 3.058019,0.0386 z m 9.004291,-0.0989 c 2.62264,-0.76243 4.29177,-3.9987 3.73286,-7.23764 -0.28068,-1.62652 -0.76037,-2.55328 -1.79126,-3.46072 -1.26189,-1.11075 -1.84876,-1.31161 -3.83291,-1.31183 -1.38393,-2e-4 -1.87617,0.0759 -2.580359,0.39859 -1.145414,0.5249 -2.110153,1.51372 -2.750358,2.819 -0.472831,0.96403 -0.519859,1.2309 -0.519859,2.95009 0,1.66533 0.05596,2.00797 0.470354,2.88029 0.639793,1.34676 1.935775,2.61629 3.005355,2.94401 1.139427,0.34912 3.099107,0.35748 4.266177,0.0182 z m 20.71735,0.03 c 1.5416,-0.33098 1.56338,-0.35305 1.41756,-1.4365 -0.0685,-0.50913 -0.14422,-0.94772 -0.16822,-0.97467 -0.024,-0.0269 -0.56164,0.0731 -1.19476,0.22236 -3.14376,0.74106 -5.0546,-0.0959 -5.62776,-2.46508 l -0.11892,-0.49153 3.91066,-0.0485 3.91066,-0.0485 0.11532,-0.56438 c 0.15833,-0.77489 -0.11979,-2.64355 -0.53222,-3.57592 -0.44718,-1.01091 -1.19768,-1.83821 -2.0888,-2.30252 -0.99609,-0.51901 -3.66162,-0.54907 -4.59045,-0.0518 -1.10852,0.59351 -1.77751,1.19742 -2.34107,2.11332 -1.39639,2.26941 -1.36487,5.61099 0.0725,7.68508 0.54488,0.78627 1.8216,1.64894 2.87707,1.94403 1.00952,0.28224 3.03044,0.27974 4.35845,-0.005 z m -88.340381,-0.517 c 0.100462,-0.32178 0.434933,-1.41759 0.743269,-2.43512 l 0.560611,-1.85007 2.556014,0.0499 2.556012,0.0499 0.78768,2.38523 0.787682,2.38524 h 1.417535 c 1.516521,0 1.604698,-0.0662 1.248164,-0.93663 -0.09315,-0.22743 -0.382144,-1.10207 -0.642201,-1.94366 -0.260057,-0.84158 -1.283779,-4.04139 -2.27494,-7.11069 -0.991161,-3.0693 -1.863102,-5.78307 -1.937643,-6.03059 -0.130717,-0.43406 -0.196558,-0.45187 -1.852795,-0.50129 l -1.717264,-0.0512 -0.763751,2.39147 c -0.420062,1.31531 -0.988514,3.08004 -1.263229,3.92162 -0.382705,1.17241 -1.909369,5.94161 -3.149354,9.83837 -0.113715,0.35736 0.11108,0.42264 1.455382,0.42264 h 1.306169 z m 75.812711,-3.28532 c 0.0804,-3.37728 0.12905,-3.84755 0.45616,-4.41043 0.45135,-0.77665 1.36615,-1.25948 2.387,-1.25985 l 0.77296,-4e-4 -0.0529,-1.30513 -0.0529,-1.30512 -0.95385,0.04 c -1.13503,0.0476 -1.78627,0.39481 -2.3847,1.27143 l -0.44182,0.64727 -0.16033,-0.93431 -0.16033,-0.93431 h -1.1448 -1.1448 v 6.03817 6.03816 l 1.39514,-0.0526 1.39514,-0.0526 z M 34.498296,13.700364 c 0.153645,-0.21936 0.329271,-0.6649 0.390277,-0.99009 0.108709,-0.57947 0.129838,-0.59126 1.059144,-0.59126 1.009267,0 1.063425,0.0524 1.441875,1.39471 0.126755,0.4496 0.908871,0.73878 1.202887,0.44477 0.128462,-0.12846 -0.132479,-1.17014 -0.839974,-3.35315 L 36.726176,7.4385539 h -0.68737 -0.687373 l -1.020794,3.0721501 c -0.561438,1.68968 -0.976213,3.18833 -0.921725,3.33033 0.149705,0.39012 0.774076,0.3095 1.089382,-0.14067 z m 6.885556,-0.14121 c 0.124217,-0.24753 0.520985,-1.21962 0.881704,-2.16021 0.360722,-0.9406 0.697877,-1.8169701 0.749238,-1.9474901 0.06953,-0.1767 -0.08217,-0.22268 -0.59394,-0.18002 l -0.687322,0.0573 -0.461767,1.4837101 c -0.253972,0.81605 -0.502271,1.48367 -0.551775,1.48361 -0.04951,-6e-5 -0.238324,-0.50571 -0.419595,-1.12367 -0.556658,-1.8976701 -0.580602,-1.9336601 -1.286713,-1.9336601 -0.348656,0 -0.633921,0.0315 -0.633921,0.0701 0,0.27947 1.7175,4.5489301 1.873154,4.6564001 0.357348,0.24672 0.901369,0.0514 1.130937,-0.40607 z m 4.024286,0.35592 c 0.241997,-0.12952 0.445006,-0.12109 0.684388,0.0284 0.187184,0.1169 0.472579,0.16179 0.634208,0.0998 0.240696,-0.0924 0.293873,-0.39651 0.293873,-1.68079 0,-1.94103 -0.241033,-2.6662101 -1.006999,-3.0296801 -0.718404,-0.34091 -1.174418,-0.34526 -1.956046,-0.0187 -0.464831,0.19422 -0.58952,0.3385 -0.520532,0.60232 0.07849,0.3001501 0.212781,0.3351901 0.996162,0.2599201 0.651774,-0.0626 0.949752,-0.017 1.06361,0.16276 0.262911,0.41515 0.197319,0.47386 -0.675664,0.60477 -1.633655,0.24498 -2.407613,1.72491 -1.419056,2.71347 0.471788,0.47179 1.29747,0.58343 1.906056,0.25773 z m 3.654667,0.0491 c 0.04579,-0.0743 0.109766,-1.14762 0.142174,-2.38524 l 0.05893,-2.2502201 -0.581596,-0.0564 -0.581596,-0.0564 v 2.3216401 c 0,1.27689 0.05401,2.37563 0.120013,2.44164 0.162579,0.16258 0.738909,0.15231 0.842079,-0.015 z m 2.417166,-3.43204 0.04893,-3.4770301 -0.588985,0.0567 -0.588985,0.0567 -0.04919,3.3171201 c -0.05186,3.49707 -0.01463,3.66982 0.769259,3.56959 0.344085,-0.044 0.362201,-0.20007 0.408966,-3.52308 z m 3.109066,3.38292 c 0.241998,-0.12952 0.445007,-0.12109 0.684389,0.0284 0.187184,0.1169 0.472579,0.16179 0.634208,0.0998 0.24318,-0.0933 0.293873,-0.40672 0.293873,-1.81687 0,-2.07413 -0.140374,-2.4823601 -0.992648,-2.8867901 -1.017807,-0.48298 -2.665547,-0.0909 -2.487019,0.59178 0.07391,0.2826501 0.252716,0.3340901 1.103247,0.3173801 0.809791,-0.0159 1.027264,0.0402 1.075499,0.27762 0.04598,0.22625 -0.125215,0.32745 -0.714445,0.42234 -1.003796,0.16165 -1.475691,0.47183 -1.759228,1.15635 -0.529468,1.27825 0.907694,2.48136 2.162124,1.81001 z m 3.634997,-0.0639 c 0.210743,-0.21074 0.299108,-0.21074 0.587316,0 0.411663,0.30102 1.233352,0.32131 1.767419,0.0436 0.772057,-0.4014 1.086151,-0.90576 1.166355,-1.87291 0.105931,-1.2774 -0.207602,-2.1423301 -0.940861,-2.5955101 -0.709639,-0.43858 -1.028336,-0.45657 -1.723179,-0.0973 l -0.522882,0.27039 -0.05324,-1.21548 -0.05324,-1.21549 -0.585057,-0.0564 -0.585058,-0.0564 v 3.4017401 c 0,1.87095 0.05401,3.45574 0.120013,3.52175 0.194482,0.19448 0.556191,0.13816 0.822409,-0.12806 z m 5.677155,-3.31898 0.04893,-3.4770301 -0.588985,0.0567 -0.588986,0.0567 -0.04919,3.3171201 c -0.05186,3.49707 -0.01464,3.66982 0.769259,3.56959 0.344086,-0.044 0.362203,-0.20007 0.408968,-3.52308 z m 4.439789,3.39149 c 0.289337,-0.11001 0.461763,-0.31398 0.461763,-0.54626 0,-0.33999 -0.07343,-0.36095 -0.886837,-0.25304 -0.79462,0.10541 -0.935011,0.0695 -1.350131,-0.34566 -0.254812,-0.25481 -0.463296,-0.54798 -0.463296,-0.65149 0,-0.11616 0.58571,-0.1882 1.53015,-0.1882 h 1.53015 v -0.51807 c 0,-1.2137 -0.958745,-2.3622101 -1.971904,-2.3622101 -0.998504,0 -2.063188,1.0041101 -2.25244,2.1242801 -0.338142,2.00144 1.484807,3.46977 3.402545,2.74065 z m 6.959299,-0.10321 c 1.181742,-0.6111 1.619351,-2.40047 0.879732,-3.5972 -0.343431,-0.5556801 -1.42963,-1.1645201 -2.077561,-1.1645201 -0.527524,0 -1.612388,0.69102 -1.924375,1.2257601 -0.402458,0.6898 -0.404615,2.0093 -0.0044,2.70659 0.575228,1.00228 2.040593,1.39099 3.126629,0.82937 z m 3.058098,-1.46645 c 0.111711,-1.76592 0.311841,-2.21517 0.986817,-2.21517 0.603772,0 0.698443,0.25607 0.798661,2.16021 l 0.09001,1.71017 h 0.540053 0.540053 l -0.008,-1.92915 c -0.0072,-1.75956 -0.04436,-1.9679 -0.422111,-2.3700001 -0.562344,-0.59859 -1.147875,-0.71142 -1.950844,-0.37591 -0.434624,0.18159 -0.696064,0.21462 -0.736588,0.0931 -0.03454,-0.10365 -0.299085,-0.18846 -0.587862,-0.18846 H 77.08355 v 2.2142201 c 0,2.33205 0.116249,2.7073 0.807977,2.60815 0.323785,-0.0464 0.373226,-0.2272 0.466845,-1.70711 z m 8.53614,1.2054 c 0,-0.31148 -0.09872,-0.44987 -0.321022,-0.45004 -0.497888,-4e-4 -0.663326,-0.43621 -0.66632,-1.75541 -0.0028,-1.21488 -0.0027,-1.21512 0.507294,-1.21512 0.624627,0 0.737269,-0.10009 0.619491,-0.5504701 -0.06385,-0.24417 -0.24798,-0.34962 -0.610483,-0.34962 -0.456719,0 -0.519058,-0.0649 -0.519058,-0.54005 0,-0.37011 -0.08869,-0.54005 -0.28186,-0.54005 -0.492676,0 -0.978263,0.36057 -0.978263,0.7264 0,0.19454 -0.121512,0.3537 -0.270027,0.3537 -0.168016,0 -0.270026,0.17002 -0.270026,0.45005 0,0.28003 0.10201,0.4500401 0.270026,0.4500401 0.211114,0 0.270246,0.24547 0.271031,1.12511 0.0013,1.36699 0.267301,2.40196 0.681149,2.64944 0.16937,0.10128 0.591472,0.16428 0.938006,0.13999 0.540184,-0.0379 0.630062,-0.10832 0.630062,-0.49397 z m 2.032778,-1.16455 c 0.05494,-1.68666 0.293022,-2.25602 0.94337,-2.25602 0.580336,0 0.799133,0.54674 0.892954,2.23135 0.08933,1.60395 0.10092,1.63903 0.54133,1.63903 0.446865,0 0.45038,-0.0127 0.497729,-1.80018 0.0403,-1.52153 -0.0064,-1.88807 -0.301939,-2.3680501 -0.433572,-0.70423 -1.228761,-0.92194 -1.986588,-0.54389 l -0.533789,0.26629 -0.05283,-1.19742 -0.05282,-1.19742 h -0.540053 -0.540053 l -0.04932,3.2342701 c -0.02712,1.77884 -0.0073,3.34367 0.04398,3.47739 0.05545,0.14451 0.294525,0.21999 0.589369,0.18607 0.495769,-0.057 0.496105,-0.0581 0.548657,-1.67142 z m 7.249964,1.51802 c 0.19151,-0.10249 0.348201,-0.34831 0.348201,-0.54625 0,-0.32708 -0.08089,-0.34918 -0.886837,-0.24226 -0.794622,0.10541 -0.935012,0.0695 -1.350133,-0.34566 -0.25481,-0.25481 -0.463294,-0.54798 -0.463294,-0.65149 0,-0.11616 0.585708,-0.1882 1.530149,-0.1882 h 1.53015 v -0.54584 c 0,-0.91544 -0.439099,-1.7054601 -1.130169,-2.0334001 -0.845327,-0.40113 -1.219571,-0.37992 -1.948513,0.11041 -2.158254,1.4518001 -1.242038,4.6277101 1.335344,4.6287601 0.377796,2e-4 0.843592,-0.0836 1.035102,-0.18607 z m 4.808863,-2.28889 0.0502,-2.3852401 h -0.52278 c -0.637439,0 -0.747795,0.39028 -0.747795,2.6446001 0,1.721 0.19375,2.26487 0.777255,2.1818 0.37826,-0.0538 0.39473,-0.14459 0.44309,-2.44116 z m 2.34323,1.17011 0.0532,-1.21512 h 0.62762 c 0.83142,0 1.75961,-0.40278 2.12268,-0.92112 0.36646,-0.52321 0.3842,-1.9296501 0.0307,-2.4343501 -0.40619,-0.57992 -1.17951,-0.8078 -2.54127,-0.74886 l -1.24627,0.0539 -0.0495,3.0536901 c -0.0272,1.67952 -0.007,3.1636 0.0442,3.29794 0.0516,0.13435 0.27636,0.21833 0.49957,0.18663 0.36902,-0.0524 0.41068,-0.16791 0.45908,-1.27275 z m 4.79252,1.19586 c 0.23108,-0.0887 0.28475,-0.42118 0.28475,-1.76417 0,-1.74155 0.13407,-2.08695 0.81008,-2.08695 0.67726,0 0.81008,0.34478 0.81008,2.10278 0,1.62162 0.0129,1.67398 0.43981,1.78112 0.72713,0.1825 0.82032,-0.0238 0.82032,-1.81585 0,-1.8968 -0.16315,-2.4141701 -0.8982,-2.8483801 -0.61747,-0.36474 -0.85012,-0.37157 -1.47915,-0.0434 l -0.48716,0.25415 -0.0529,-1.20035 -0.0529,-1.20035 -0.58505,-0.0564 -0.58506,-0.0564 v 3.4017401 c 0,1.87095 0.054,3.45574 0.12001,3.52175 0.14942,0.14942 0.48306,0.15361 0.85536,0.0107 z m 7.31262,-0.16447 c 0.77397,-0.40023 1.32003,-1.57408 1.18626,-2.55005 -0.0588,-0.42861 -0.23461,-0.97433 -0.3908,-1.21271 -0.27785,-0.4240401 -1.42978,-1.0039901 -1.9942,-1.0039901 -0.55857,0 -1.557,0.61074 -1.88932,1.1557001 -0.41382,0.67862 -0.44719,2.07418 -0.0672,2.80906 0.51604,0.99793 2.03145,1.38311 3.15522,0.80199 z m 2.83568,-1.43063 c 0.0548,-1.6824 0.29318,-2.25602 0.93751,-2.25602 0.64434,0 0.88271,0.57362 0.93752,2.25602 0.0517,1.58795 0.0599,1.61436 0.50262,1.61436 0.44916,0 0.45015,-0.004 0.50127,-1.94717 l 0.0512,-1.94717 -0.5653,-0.5280701 c -0.63597,-0.59409 -1.09166,-0.65394 -1.87376,-0.24613 -0.34613,0.18048 -0.55902,0.21202 -0.60006,0.0889 -0.035,-0.10496 -0.29988,-0.19083 -0.58866,-0.19083 h -0.52505 v 2.3102301 c 0,1.27062 0.0577,2.36795 0.12828,2.4385 0.0706,0.0705 0.33382,0.10431 0.58506,0.075 0.44658,-0.0521 0.45795,-0.0893 0.50936,-1.66763 z m 6.95964,1.49546 c 0.25218,-0.11491 0.45727,-0.25667 0.45575,-0.31503 -0.009,-0.35195 -0.38102,-0.49828 -1.22805,-0.48323 -0.80415,0.0143 -1.01691,-0.0522 -1.30512,-0.40791 -0.1894,-0.23374 -0.34435,-0.49702 -0.34435,-0.58506 0,-0.088 0.68856,-0.16007 1.53015,-0.16007 h 1.53015 v -0.72641 c 0,-0.86292 -0.39379,-1.5289401 -1.12871,-1.9089801 -0.69964,-0.3618 -1.50931,-0.20334 -2.28962,0.44809 -0.56081,0.4681801 -0.61766,0.6088201 -0.68712,1.6996001 -0.0647,1.01613 -0.0188,1.26257 0.3156,1.69352 0.68642,0.8847 2.10779,1.22094 3.15132,0.74548 z M 49.251523,8.2936539 c 0.418748,-0.668 -0.642073,-1.37807 -1.148025,-0.76843 -0.184019,0.22173 -0.190054,0.3843 -0.02751,0.74105 0.239547,0.52575 0.854151,0.54007 1.175535,0.0274 z m 51.767197,0.14366 c 0.47821,-0.5762 -0.22416,-1.46134 -0.84791,-1.06854 -0.399946,0.25187 -0.497695,0.73134 -0.21784,1.06854 0.27806,0.33504 0.78769,0.33504 1.06575,0 z"
     id="path908"
     inkscape:connector-curvature="0" />
  <path
     style="fill:#000000;fill-opacity:1;stroke:#757a7d;stroke-width:0;stroke-miterlimit:0;stroke-dasharray:none;stroke-opacity:1"
     d="m 52.836737,32.650594 c -1.215184,-0.55169 -1.540858,-1.39196 -1.466023,-3.78247 0.05595,-1.78719 0.09692,-1.97494 0.564679,-2.58759 0.644979,-0.84476 1.341941,-1.20025 2.353177,-1.20025 0.911807,0 1.625313,0.48221 2.279353,1.54047 0.323109,0.5228 0.386385,0.90108 0.386385,2.30992 0,2.22587 -0.492588,3.26634 -1.806232,3.81522 -0.81508,0.34056 -1.404871,0.31624 -2.311339,-0.0953 z"
     id="path910"
     inkscape:connector-curvature="0" />
  <path
     style="fill:#000000;fill-opacity:1;stroke:#757a7d;stroke-width:0;stroke-miterlimit:0;stroke-dasharray:none;stroke-opacity:1"
     d="m 65.798008,32.650594 c -1.163449,-0.52821 -1.495707,-1.34052 -1.495707,-3.65673 0,-1.69548 0.04136,-1.92511 0.464233,-2.57728 0.609396,-0.93982 1.331967,-1.3363 2.435375,-1.3363 0.80983,0 0.960606,0.0704 1.669353,0.77911 0.667956,0.66796 0.810932,0.94774 1.002115,1.96097 0.410768,2.17698 -0.295907,4.20778 -1.683512,4.83796 -0.932209,0.42336 -1.445982,0.4217 -2.391857,-0.008 z"
     id="path912"
     inkscape:connector-curvature="0" />
  <path
     style="fill:#000000;fill-opacity:1;stroke:#757a7d;stroke-width:0;stroke-miterlimit:0;stroke-dasharray:none;stroke-opacity:1"
     d="m 38.019838,27.915554 c 6.1e-5,-0.0247 0.278678,-0.90415 0.619148,-1.95422 0.340471,-1.05008 0.758724,-2.48797 0.929452,-3.19532 0.170728,-0.70735 0.367631,-1.28609 0.437562,-1.28609 0.06993,0 0.227,0.38479 0.349043,0.85509 0.122042,0.47029 0.537609,1.83744 0.923483,3.0381 0.385873,1.20066 0.701587,2.27402 0.701587,2.38524 0,0.13735 -0.635173,0.20221 -1.980193,0.20221 -1.089107,0 -1.980144,-0.0202 -1.980082,-0.045 z"
     id="path914"
     inkscape:connector-curvature="0" />
  <path
     style="fill:#000000;fill-opacity:1;stroke:#757a7d;stroke-width:0;stroke-miterlimit:0;stroke-dasharray:none;stroke-opacity:1"
     d="m 11.917168,22.109994 v -8.91088 h 6.030591 6.030591 v 8.91088 8.91087 h -6.030591 -6.030591 z"
     id="path916"
     inkscape:connector-curvature="0" />
  <path
     style="fill:#000000;fill-opacity:1;stroke:#757a7d;stroke-width:0;stroke-miterlimit:0;stroke-dasharray:none;stroke-opacity:1"
     d="m 17.317697,34.855344 c -0.421031,-0.15198 -0.891671,-0.82194 -0.896085,-1.27556 -0.01078,-1.10751 1.324192,-1.82948 2.255047,-1.21956 0.698337,0.45757 0.895817,1.1485 0.525946,1.84014 -0.369348,0.69067 -1.091203,0.94151 -1.884908,0.65498 z"
     id="path918"
     inkscape:connector-curvature="0" />
  <path
     style="fill:#000000;fill-opacity:1;stroke:#757a7d;stroke-width:0;stroke-miterlimit:0;stroke-dasharray:none;stroke-opacity:1"
     d="m 58.941827,12.918884 c -0.533997,-0.37403 -0.581016,-2.02048 -0.07089,-2.48214 0.810608,-0.7335901 1.650989,-0.11384 1.650989,1.21754 0,0.66867 -0.08903,0.93133 -0.40504,1.19496 -0.498557,0.41591 -0.666484,0.42586 -1.175064,0.0696 z"
     id="path920"
     inkscape:connector-curvature="0" />
  <path
     style="fill:#000000;fill-opacity:1;stroke:#757a7d;stroke-width:0;stroke-miterlimit:0;stroke-dasharray:none;stroke-opacity:1"
     d="m 66.262714,10.633864 c 0.174326,-0.47505 1.233477,-0.6774001 1.483292,-0.28338 0.334581,0.52772 0.162389,0.68842 -0.737639,0.68842 -0.851438,0 -0.887166,-0.0194 -0.745653,-0.40504 z"
     id="path922"
     inkscape:connector-curvature="0" />
  <path
     style="fill:#000000;fill-opacity:1;stroke:#757a7d;stroke-width:0;stroke-miterlimit:0;stroke-dasharray:none;stroke-opacity:1"
     d="m 73.735171,13.061344 c -0.343436,-0.22932 -0.612006,-0.89657 -0.612006,-1.52051 0,-1.38134 1.322173,-1.9603801 1.904595,-0.8341 0.64425,1.24584 -0.320675,3.00358 -1.292589,2.35461 z"
     id="path924"
     inkscape:connector-curvature="0" />
  <path
     style="fill:#000000;fill-opacity:1;stroke:#757a7d;stroke-width:0;stroke-miterlimit:0;stroke-dasharray:none;stroke-opacity:1"
     d="m 100.99362,32.924444 c -0.81246,-0.28489 -1.095542,-0.55857 -1.621565,-1.56773 -0.49714,-0.95374 -0.650088,-2.86993 -0.322472,-4.04006 0.124057,-0.44309 0.529393,-1.14779 0.900746,-1.566 0.666701,-0.75083 0.690221,-0.76034 1.871181,-0.75684 1.09869,0.003 1.23771,0.0482 1.70869,0.55213 0.84673,0.906 1.15109,1.68066 1.2316,3.13469 0.0693,1.2508 0.0306,1.43606 -0.52545,2.5181 -0.82441,1.60429 -1.92248,2.18866 -3.24273,1.72571 z"
     id="path926"
     inkscape:connector-curvature="0" />
  <path
     style="fill:#000000;fill-opacity:1;stroke:#757a7d;stroke-width:0;stroke-miterlimit:0;stroke-dasharray:none;stroke-opacity:1"
     d="m 119.13265,26.838004 c 0.31235,-0.8853 0.97837,-1.64082 1.71564,-1.94621 0.40127,-0.16621 0.71076,-0.16616 1.37159,2e-4 1.23804,0.31174 1.4854,0.59558 1.85055,2.12344 l 0.13983,0.58505 h -2.67332 -2.67332 z"
     id="path928"
     inkscape:connector-curvature="0" />
  <path
     style="fill:#000000;fill-opacity:1;stroke:#757a7d;stroke-width:0;stroke-miterlimit:0;stroke-dasharray:none;stroke-opacity:1"
     d="m 122.80804,10.886784 c 0,-0.30522 0.67063,-0.74797 1.13295,-0.74797 0.40904,0 0.84724,0.41286 0.84724,0.79825 0,0.056 -0.44554,0.10184 -0.9901,0.10184 -0.54455,0 -0.99009,-0.0684 -0.99009,-0.15212 z"
     id="path930"
     inkscape:connector-curvature="0" />
  <path
     style="fill:#000000;fill-opacity:1;stroke:#757a7d;stroke-width:0;stroke-miterlimit:0;stroke-dasharray:none;stroke-opacity:1"
     d="m 113.77565,13.012234 c -0.3971,-0.2317 -0.74727,-1.32053 -0.59029,-1.83549 0.34613,-1.1355 1.48983,-1.4301401 1.9673,-0.50681 0.36777,0.71119 0.34502,1.24144 -0.0834,1.94412 -0.36275,0.59495 -0.75135,0.71456 -1.2936,0.39818 z"
     id="path932"
     inkscape:connector-curvature="0" />
  <path
     style="fill:#000000;fill-opacity:1;stroke:#757a7d;stroke-width:0;stroke-miterlimit:0;stroke-dasharray:none;stroke-opacity:1"
     d="m 103.68116,10.537614 c -0.25274,-0.0523 -0.31503,-0.25594 -0.31503,-1.0299301 0,-1.08306 0.21909,-1.27372 1.17011,-1.01829 1.4777,0.39688 0.65768,2.3611001 -0.85508,2.0482201 z"
     id="path934"
     inkscape:connector-curvature="0" />
  <path
     style="fill:#000000;fill-opacity:1;stroke:#757a7d;stroke-width:0;stroke-miterlimit:0;stroke-dasharray:none;stroke-opacity:1"
     d="m 93.825194,10.937064 c 0,-0.056 0.08386,-0.25854 0.186351,-0.45005 0.236321,-0.44157 1.341572,-0.4881801 1.504556,-0.0634 0.20647,0.53805 0.107141,0.61534 -0.79082,0.61534 -0.495047,0 -0.900087,-0.0458 -0.900087,-0.10184 z"
     id="path936"
     inkscape:connector-curvature="0" />
  <path
     style="fill:#000000;fill-opacity:1;stroke:#757a7d;stroke-width:0;stroke-miterlimit:0;stroke-dasharray:none;stroke-opacity:1"
     d="m 53.717264,12.983094 c -0.118812,-0.11881 -0.216022,-0.30878 -0.216022,-0.42214 0,-0.32703 0.621412,-0.80198 1.049277,-0.80198 0.308078,0 0.390865,0.10676 0.390865,0.50405 0,0.81911 -0.708384,1.23581 -1.22412,0.72007 z"
     id="path938"
     inkscape:connector-curvature="0" />
  <path
     style="fill:#000000;fill-opacity:1;stroke:#757a7d;stroke-width:0;stroke-miterlimit:0;stroke-dasharray:none;stroke-opacity:1"
     d="m 44.536364,12.983094 c -0.520403,-0.5204 -0.03046,-1.22412 0.85225,-1.22412 0.273733,0 0.37187,0.11538 0.37187,0.43719 0,0.77151 -0.754505,1.25655 -1.22412,0.78693 z"
     id="path940"
     inkscape:connector-curvature="0" />
  <path
     style="fill:#000000;fill-opacity:1;stroke:#757a7d;stroke-width:0;stroke-miterlimit:0;stroke-dasharray:none;stroke-opacity:1"
     d="m 35.428521,10.757064 c 0.06376,-0.25403 0.213028,-0.7907501 0.331715,-1.1927201 l 0.215794,-0.73085 0.316464,1.00612 c 0.364098,1.1575701 0.292231,1.3793101 -0.447034,1.3793101 -0.482128,0 -0.521823,-0.044 -0.416939,-0.46186 z"
     id="path942"
     inkscape:connector-curvature="0" />
  <g
     inkscape:groupmode="layer"
     id="layer2"
     inkscape:label="Layer 2" />
</svg>
