<?xml version="1.0" encoding="UTF-8" standalone="no"?>
<svg
   xmlns:dc="http://purl.org/dc/elements/1.1/"
   xmlns:cc="http://creativecommons.org/ns#"
   xmlns:rdf="http://www.w3.org/1999/02/22-rdf-syntax-ns#"
   xmlns:svg="http://www.w3.org/2000/svg"
   xmlns="http://www.w3.org/2000/svg"
   xmlns:sodipodi="http://sodipodi.sourceforge.net/DTD/sodipodi-0.dtd"
   xmlns:inkscape="http://www.inkscape.org/namespaces/inkscape"
   id="svg2"
   version="1.1"
   inkscape:version="0.92.2 2405546, 2018-03-11"
   xml:space="preserve"
   width="135.71649"
   height="40.018951"
   viewBox="0 0 135.71649 40.018951"
   sodipodi:docname="google_play.svg"><metadata
     id="metadata8"><rdf:RDF><cc:Work
         rdf:about=""><dc:format>image/svg+xml</dc:format><dc:type
           rdf:resource="http://purl.org/dc/dcmitype/StillImage" /><dc:title /></cc:Work></rdf:RDF></metadata><defs
     id="defs6"><linearGradient
       x1="31.7997"
       y1="183.2903"
       x2="15.0173"
       y2="166.5079"
       gradientUnits="userSpaceOnUse"
       gradientTransform="matrix(0.8,0,0,-0.8,0,161.6)"
       spreadMethod="pad"
       id="linearGradient50"><stop
         style="stop-opacity:1;stop-color:#00a0ff"
         offset="0"
         id="stop52" /><stop
         style="stop-opacity:1;stop-color:#00a1ff"
         offset="0.0066"
         id="stop54" /><stop
         style="stop-opacity:1;stop-color:#00beff"
         offset="0.2601"
         id="stop56" /><stop
         style="stop-opacity:1;stop-color:#00d2ff"
         offset="0.5122"
         id="stop58" /><stop
         style="stop-opacity:1;stop-color:#00dfff"
         offset="0.7604"
         id="stop60" /><stop
         style="stop-opacity:1;stop-color:#00e3ff"
         offset="1"
         id="stop62" /></linearGradient><linearGradient
       x1="43.8344"
       y1="171.9986"
       x2="19.637501"
       y2="171.9986"
       gradientUnits="userSpaceOnUse"
       gradientTransform="matrix(0.8,0,0,-0.8,0,161.6)"
       spreadMethod="pad"
       id="linearGradient68"><stop
         style="stop-opacity:1;stop-color:#ffe000"
         offset="0"
         id="stop70" /><stop
         style="stop-opacity:1;stop-color:#ffbd00"
         offset="0.4087"
         id="stop72" /><stop
         style="stop-opacity:1;stop-color:#ffa500"
         offset="0.7754"
         id="stop74" /><stop
         style="stop-opacity:1;stop-color:#ff9c00"
         offset="1"
         id="stop76" /></linearGradient><linearGradient
       x1="34.827"
       y1="169.7039"
       x2="12.0687"
       y2="146.9456"
       gradientUnits="userSpaceOnUse"
       gradientTransform="matrix(0.8,0,0,-0.8,0,161.6)"
       spreadMethod="pad"
       id="linearGradient82"><stop
         style="stop-opacity:1;stop-color:#ff3a44"
         offset="0"
         id="stop84" /><stop
         style="stop-opacity:1;stop-color:#c31162"
         offset="1"
         id="stop86" /></linearGradient><linearGradient
       x1="17.2973"
       y1="191.82381"
       x2="27.4599"
       y2="181.6613"
       gradientUnits="userSpaceOnUse"
       gradientTransform="matrix(0.8,0,0,-0.8,0,161.6)"
       spreadMethod="pad"
       id="linearGradient92"><stop
         style="stop-opacity:1;stop-color:#32a071"
         offset="0"
         id="stop94" /><stop
         style="stop-opacity:1;stop-color:#2da771"
         offset="0.0685"
         id="stop96" /><stop
         style="stop-opacity:1;stop-color:#15cf74"
         offset="0.4762"
         id="stop98" /><stop
         style="stop-opacity:1;stop-color:#06e775"
         offset="0.8009"
         id="stop100" /><stop
         style="stop-opacity:1;stop-color:#00f076"
         offset="1"
         id="stop102" /></linearGradient><clipPath
       clipPathUnits="userSpaceOnUse"
       id="clipPath110"><path
         d="M 0,0 124,0 124,48 0,48 0,0 Z"
         id="path112"
         inkscape:connector-curvature="0" /></clipPath><mask
       maskUnits="userSpaceOnUse"
       x="0"
       y="0"
       width="1"
       height="1"
       id="mask114"><g
         id="g116"><g
           clip-path="url(#clipPath110)"
           id="g118"><path
             d="M 0,0 124,0 124,48 0,48 0,0 Z"
             style="fill:#000000;fill-opacity:0.2;fill-rule:nonzero;stroke:none"
             id="path120"
             inkscape:connector-curvature="0" /></g></g></mask><clipPath
       clipPathUnits="userSpaceOnUse"
       id="clipPath126"><path
         d="M 0,0 124,0 124,48 0,48 0,0 Z"
         id="path128"
         inkscape:connector-curvature="0" /></clipPath><clipPath
       clipPathUnits="userSpaceOnUse"
       id="clipPath130"><path
         d="M 0,0 124,0 124,48 0,48 0,0 Z"
         id="path132"
         inkscape:connector-curvature="0" /></clipPath><pattern
       patternTransform="matrix(1,0,0,-1,0,48)"
       patternUnits="userSpaceOnUse"
       x="0"
       y="0"
       width="124"
       height="48"
       id="pattern134"><g
         id="g136" /><g
         id="g138"><g
           clip-path="url(#clipPath130)"
           id="g140"><g
             id="g142"><path
               d="M 29.625,20.695 18.012,14.098 C 17.363,13.727 16.781,13.754 16.406,14.09 l -0.058,-0.063 0.058,-0.058 c 0.375,-0.336 0.957,-0.36 1.606,0.011 l 11.687,6.641 -0.074,0.074 z"
               style="fill:#000000;fill-opacity:1;fill-rule:nonzero;stroke:none"
               id="path144" /></g></g></g></pattern><clipPath
       clipPathUnits="userSpaceOnUse"
       id="clipPath158"><path
         d="M 0,0 124,0 124,48 0,48 0,0 Z"
         id="path160"
         inkscape:connector-curvature="0" /></clipPath><mask
       maskUnits="userSpaceOnUse"
       x="0"
       y="0"
       width="1"
       height="1"
       id="mask162"><g
         id="g164"><g
           clip-path="url(#clipPath158)"
           id="g166"><path
             d="M 0,0 124,0 124,48 0,48 0,0 Z"
             style="fill:#000000;fill-opacity:0.12000002;fill-rule:nonzero;stroke:none"
             id="path168"
             inkscape:connector-curvature="0" /></g></g></mask><clipPath
       clipPathUnits="userSpaceOnUse"
       id="clipPath174"><path
         d="M 0,0 124,0 124,48 0,48 0,0 Z"
         id="path176"
         inkscape:connector-curvature="0" /></clipPath><clipPath
       clipPathUnits="userSpaceOnUse"
       id="clipPath178"><path
         d="M 0,0 124,0 124,48 0,48 0,0 Z"
         id="path180"
         inkscape:connector-curvature="0" /></clipPath><pattern
       patternTransform="matrix(1,0,0,-1,0,48)"
       patternUnits="userSpaceOnUse"
       x="0"
       y="0"
       width="124"
       height="48"
       id="pattern182"><g
         id="g184" /><g
         id="g186"><g
           clip-path="url(#clipPath178)"
           id="g188"><g
             id="g190"><path
               d="m 16.348,14.145 c -0.235,0.246 -0.371,0.628 -0.371,1.125 l 0,-0.118 c 0,-0.496 0.136,-0.879 0.371,-1.125 l 0.058,0.063 -0.058,0.055 z"
               style="fill:#000000;fill-opacity:1;fill-rule:nonzero;stroke:none"
               id="path192" /></g></g></g></pattern><clipPath
       clipPathUnits="userSpaceOnUse"
       id="clipPath206"><path
         d="M 0,0 124,0 124,48 0,48 0,0 Z"
         id="path208"
         inkscape:connector-curvature="0" /></clipPath><mask
       maskUnits="userSpaceOnUse"
       x="0"
       y="0"
       width="1"
       height="1"
       id="mask210"><g
         id="g212"><g
           clip-path="url(#clipPath206)"
           id="g214"><path
             d="M 0,0 124,0 124,48 0,48 0,0 Z"
             style="fill:#000000;fill-opacity:0.12000002;fill-rule:nonzero;stroke:none"
             id="path216"
             inkscape:connector-curvature="0" /></g></g></mask><clipPath
       clipPathUnits="userSpaceOnUse"
       id="clipPath222"><path
         d="M 0,0 124,0 124,48 0,48 0,0 Z"
         id="path224"
         inkscape:connector-curvature="0" /></clipPath><clipPath
       clipPathUnits="userSpaceOnUse"
       id="clipPath226"><path
         d="M 0,0 124,0 124,48 0,48 0,0 Z"
         id="path228"
         inkscape:connector-curvature="0" /></clipPath><pattern
       patternTransform="matrix(1,0,0,-1,0,48)"
       patternUnits="userSpaceOnUse"
       x="0"
       y="0"
       width="124"
       height="48"
       id="pattern230"><g
         id="g232" /><g
         id="g234"><g
           clip-path="url(#clipPath226)"
           id="g236"><g
             id="g238"><path
               d="m 33.613,22.961 -3.988,-2.266 0.074,-0.074 3.914,2.223 c 0.559,0.316 0.836,0.734 0.836,1.156 -0.047,-0.379 -0.332,-0.75 -0.836,-1.039 z"
               style="fill:#000000;fill-opacity:1;fill-rule:nonzero;stroke:none"
               id="path240" /></g></g></g></pattern><clipPath
       clipPathUnits="userSpaceOnUse"
       id="clipPath254"><path
         d="M 0,0 124,0 124,48 0,48 0,0 Z"
         id="path256"
         inkscape:connector-curvature="0" /></clipPath><mask
       maskUnits="userSpaceOnUse"
       x="0"
       y="0"
       width="1"
       height="1"
       id="mask258"><g
         id="g260"><g
           clip-path="url(#clipPath254)"
           id="g262"><path
             d="M 0,0 124,0 124,48 0,48 0,0 Z"
             style="fill:#000000;fill-opacity:0.25;fill-rule:nonzero;stroke:none"
             id="path264"
             inkscape:connector-curvature="0" /></g></g></mask><clipPath
       clipPathUnits="userSpaceOnUse"
       id="clipPath270"><path
         d="M 0,0 124,0 124,48 0,48 0,0 Z"
         id="path272"
         inkscape:connector-curvature="0" /></clipPath><clipPath
       clipPathUnits="userSpaceOnUse"
       id="clipPath274"><path
         d="M 0,0 124,0 124,48 0,48 0,0 Z"
         id="path276"
         inkscape:connector-curvature="0" /></clipPath><pattern
       patternTransform="matrix(1,0,0,-1,0,48)"
       patternUnits="userSpaceOnUse"
       x="0"
       y="0"
       width="124"
       height="48"
       id="pattern278"><g
         id="g280" /><g
         id="g282"><g
           clip-path="url(#clipPath274)"
           id="g284"><g
             id="g286"><path
               d="m 18.012,33.902 15.601,-8.863 c 0.508,-0.289 0.789,-0.66 0.836,-1.039 0,0.418 -0.277,0.836 -0.836,1.156 L 18.012,34.02 c -1.117,0.632 -2.035,0.105 -2.035,-1.176 l 0,-0.114 c 0,1.278 0.918,1.805 2.035,1.172 z"
               style="fill:#ffffff;fill-opacity:1;fill-rule:nonzero;stroke:none"
               id="path288" /></g></g></g></pattern></defs><sodipodi:namedview
     pagecolor="#ffffff"
     bordercolor="#666666"
     borderopacity="1"
     objecttolerance="10"
     gridtolerance="10"
     guidetolerance="10"
     inkscape:pageopacity="0"
     inkscape:pageshadow="2"
     inkscape:window-width="1366"
     inkscape:window-height="713"
     id="namedview4"
     showgrid="false"
     inkscape:zoom="7.6276974"
     inkscape:cx="65.547786"
     inkscape:cy="29.61582"
     inkscape:window-x="1920"
     inkscape:window-y="312"
     inkscape:window-maximized="1"
     inkscape:current-layer="g10" /><g
     id="g10"
     inkscape:groupmode="layer"
     inkscape:label="google-play-badge"
     transform="matrix(1.25,0,0,-1.25,-9.4247625,49.85025)"><path
       inkscape:connector-curvature="0"
       id="path14"
       style="fill:#000000;fill-opacity:1;fill-rule:nonzero;stroke:none;stroke-width:0.99062544"
       d="M 111.87417,8.0307188 H 11.829171 c -2.1999894,0 -4.0017994,1.7665956 -4.0017994,3.9235882 v 23.541532 c 0,2.156993 1.80181,3.923589 4.0017994,3.923589 H 111.87417 c 2.2,0 4.00181,-1.766596 4.00181,-3.923589 V 11.954307 c 0,-2.1569926 -1.80181,-3.9235882 -4.00181,-3.9235882 z" /><g
       transform="matrix(1.0023923,0,0,-0.99072975,-0.29664813,47.555028)"
       id="g18"><path
         inkscape:connector-curvature="0"
         id="path20"
         style="fill:#ffffff;fill-opacity:1;fill-rule:nonzero;stroke:#ffffff;stroke-width:0.16;stroke-linecap:butt;stroke-linejoin:miter;stroke-miterlimit:10;stroke-dasharray:none;stroke-opacity:1"
         d="m 45.934,16.195 c 0,0.668 -0.2,1.203 -0.594,1.602 -0.453,0.473 -1.043,0.711 -1.766,0.711 -0.691,0 -1.281,-0.242 -1.765,-0.719 -0.485,-0.484 -0.727,-1.078 -0.727,-1.789 0,-0.711 0.242,-1.305 0.727,-1.785 0.484,-0.481 1.074,-0.723 1.765,-0.723 0.344,0 0.672,0.071 0.985,0.203 0.312,0.133 0.566,0.313 0.75,0.535 l -0.418,0.422 c -0.321,-0.379 -0.758,-0.566 -1.317,-0.566 -0.504,0 -0.941,0.176 -1.312,0.531 -0.367,0.356 -0.551,0.817 -0.551,1.383 0,0.566 0.184,1.031 0.551,1.387 0.371,0.351 0.808,0.531 1.312,0.531 0.535,0 0.985,-0.18 1.34,-0.535 0.234,-0.235 0.367,-0.559 0.402,-0.973 h -1.742 v -0.578 h 2.324 c 0.028,0.125 0.036,0.246 0.036,0.363 z" /></g><g
       transform="matrix(1.0023923,0,0,-0.99072975,-0.29664813,47.555028)"
       id="g22"><path
         inkscape:connector-curvature="0"
         id="path24"
         style="fill:#ffffff;fill-opacity:1;fill-rule:nonzero;stroke:#ffffff;stroke-width:0.16;stroke-linecap:butt;stroke-linejoin:miter;stroke-miterlimit:10;stroke-dasharray:none;stroke-opacity:1"
         d="m 49.621,14.191 h -2.183 v 1.52 h 1.968 v 0.578 h -1.968 v 1.52 h 2.183 v 0.589 H 46.82 v -4.796 h 2.801 z" /></g><g
       transform="matrix(1.0023923,0,0,-0.99072975,-0.29664813,47.555028)"
       id="g26"><path
         inkscape:connector-curvature="0"
         id="path28"
         style="fill:#ffffff;fill-opacity:1;fill-rule:nonzero;stroke:#ffffff;stroke-width:0.16;stroke-linecap:butt;stroke-linejoin:miter;stroke-miterlimit:10;stroke-dasharray:none;stroke-opacity:1"
         d="m 52.223,18.398 h -0.618 v -4.207 h -1.339 v -0.589 h 3.297 v 0.589 h -1.34 z" /></g><g
       transform="matrix(1.0023923,0,0,-0.99072975,-0.29664813,47.555028)"
       id="g30"><path
         inkscape:connector-curvature="0"
         id="path32"
         style="fill:#ffffff;fill-opacity:1;fill-rule:nonzero;stroke:#ffffff;stroke-width:0.16;stroke-linecap:butt;stroke-linejoin:miter;stroke-miterlimit:10;stroke-dasharray:none;stroke-opacity:1"
         d="m 55.949,18.398 v -4.796 h 0.617 v 4.796 z" /></g><g
       transform="matrix(1.0023923,0,0,-0.99072975,-0.29664813,47.555028)"
       id="g34"><path
         inkscape:connector-curvature="0"
         id="path36"
         style="fill:#ffffff;fill-opacity:1;fill-rule:nonzero;stroke:#ffffff;stroke-width:0.16;stroke-linecap:butt;stroke-linejoin:miter;stroke-miterlimit:10;stroke-dasharray:none;stroke-opacity:1"
         d="m 59.301,18.398 h -0.613 v -4.207 h -1.344 v -0.589 h 3.301 v 0.589 h -1.344 z" /></g><g
       transform="matrix(1.0023923,0,0,-0.99072975,-0.29664813,47.555028)"
       id="g38"><path
         inkscape:connector-curvature="0"
         id="path40"
         style="fill:#ffffff;fill-opacity:1;fill-rule:nonzero;stroke:#ffffff;stroke-width:0.16;stroke-linecap:butt;stroke-linejoin:miter;stroke-miterlimit:10;stroke-dasharray:none;stroke-opacity:1"
         d="m 66.887,17.781 c -0.473,0.485 -1.059,0.727 -1.758,0.727 -0.703,0 -1.289,-0.242 -1.762,-0.727 C 62.895,17.297 62.66,16.703 62.66,16 c 0,-0.703 0.235,-1.297 0.707,-1.781 0.473,-0.485 1.059,-0.727 1.762,-0.727 0.695,0 1.281,0.242 1.754,0.731 0.476,0.488 0.711,1.078 0.711,1.777 0,0.703 -0.235,1.297 -0.707,1.781 z m -3.063,-0.402 c 0.356,0.359 0.789,0.539 1.305,0.539 0.512,0 0.949,-0.18 1.301,-0.539 0.355,-0.359 0.535,-0.82 0.535,-1.379 0,-0.559 -0.18,-1.02 -0.535,-1.379 -0.352,-0.359 -0.789,-0.539 -1.301,-0.539 -0.516,0 -0.949,0.18 -1.305,0.539 -0.355,0.359 -0.535,0.82 -0.535,1.379 0,0.559 0.18,1.02 0.535,1.379 z" /></g><g
       transform="matrix(1.0023923,0,0,-0.99072975,-0.29664813,47.555028)"
       id="g42"><path
         inkscape:connector-curvature="0"
         id="path44"
         style="fill:#ffffff;fill-opacity:1;fill-rule:nonzero;stroke:#ffffff;stroke-width:0.16;stroke-linecap:butt;stroke-linejoin:miter;stroke-miterlimit:10;stroke-dasharray:none;stroke-opacity:1"
         d="m 68.461,18.398 v -4.796 h 0.75 l 2.332,3.73 H 71.57 L 71.543,16.41 v -2.808 h 0.617 v 4.796 h -0.644 l -2.442,-3.914 h -0.027 l 0.027,0.926 v 2.988 z" /></g><path
       inkscape:connector-curvature="0"
       id="path46"
       style="fill:#ffffff;fill-opacity:1;fill-rule:nonzero;stroke:none;stroke-width:0.99654394"
       d="m 62.36089,22.388511 c -1.883495,0 -3.422168,-1.416744 -3.422168,-3.371453 0,-1.938859 1.538673,-3.370463 3.422168,-3.370463 1.887504,0 3.426177,1.431604 3.426177,3.370463 0,1.954709 -1.538673,3.371453 -3.426177,3.371453 z m 0,-5.414338 c -1.033467,0 -1.922589,0.843111 -1.922589,2.042885 0,1.215625 0.889122,2.043875 1.922589,2.043875 1.033466,0 1.926598,-0.82825 1.926598,-2.043875 0,-1.199774 -0.893132,-2.042885 -1.926598,-2.042885 z m -7.46682,5.414338 c -1.887505,0 -3.422168,-1.416744 -3.422168,-3.371453 0,-1.938859 1.534663,-3.370463 3.422168,-3.370463 1.886502,0 3.422167,1.431604 3.422167,3.370463 0,1.954709 -1.535665,3.371453 -3.422167,3.371453 z m 0,-5.414338 c -1.034469,0 -1.926598,0.843111 -1.926598,2.042885 0,1.215625 0.892129,2.043875 1.926598,2.043875 1.033466,0 1.922588,-0.82825 1.922588,-2.043875 0,-1.199774 -0.889122,-2.042885 -1.922588,-2.042885 z m -8.885206,4.381007 v -1.432595 h 3.461261 c -0.101242,-0.80051 -0.371888,-1.389004 -0.786878,-1.799166 -0.505206,-0.495365 -1.292084,-1.04522 -2.674383,-1.04522 -2.130083,0 -3.798064,1.699102 -3.798064,3.804403 0,2.1053 1.667981,3.804402 3.798064,3.804402 1.151749,0 1.989749,-0.444838 2.608225,-1.021442 l 1.021438,1.009553 c -0.865065,0.816362 -2.015811,1.443493 -3.629663,1.443493 -2.920971,0 -5.37583,-2.34902 -5.37583,-5.236006 0,-2.886987 2.454859,-5.236007 5.37583,-5.236007 1.578768,0 2.764598,0.511217 3.696823,1.470243 0.95528,0.944165 1.25299,2.271743 1.25299,3.343713 0,0.332885 -0.02807,0.639021 -0.07819,0.894629 z m 36.332711,-1.110608 c -0.281672,0.753945 -1.150746,2.143939 -2.920971,2.143939 -1.754186,0 -3.214672,-1.366216 -3.214672,-3.371453 0,-1.888331 1.44545,-3.370463 3.383074,-3.370463 1.566739,0 2.470897,0.944165 2.842785,1.49402 l -1.162775,0.765835 c -0.387926,-0.560753 -0.916187,-0.932277 -1.68001,-0.932277 -0.758811,0 -1.30311,0.343783 -1.651942,1.021442 l 4.561887,1.865544 z m -4.6511,-1.122497 c -0.03909,1.299837 1.021438,1.965608 1.781251,1.965608 0.595421,0 1.100627,-0.294247 1.269029,-0.715307 z m -3.707849,-3.270399 h 1.499579 v 9.907298 h -1.499579 z m -2.455861,5.785862 h -0.05012 c -0.336803,0.39431 -0.979337,0.750973 -1.793279,0.750973 -1.708077,0 -3.269804,-1.482132 -3.269804,-3.382351 0,-1.889322 1.561727,-3.359565 3.269804,-3.359565 0.813942,0 1.456476,0.359635 1.793279,0.765834 h 0.05012 v -0.483476 c 0,-1.288939 -0.696663,-1.98146 -1.820344,-1.98146 -0.916187,0 -1.484543,0.653882 -1.719103,1.203737 l -1.304113,-0.537966 c 0.375897,-0.893638 1.371273,-1.993348 3.023216,-1.993348 1.758196,0 3.241736,1.022433 3.241736,3.510155 v 6.053359 h -1.421392 z m -1.715093,-4.663365 c -1.033467,0 -1.898531,0.855 -1.898531,2.031987 0,1.187885 0.865064,2.054773 1.898531,2.054773 1.01843,0 1.821347,-0.866888 1.821347,-2.054773 0,-1.176987 -0.802917,-2.031987 -1.821347,-2.031987 z m 19.550659,8.784801 h -3.58656 v -9.907298 h 1.49557 v 3.753875 h 2.09099 c 1.660964,0 3.289852,1.187885 3.289852,3.077207 0,1.888331 -1.632897,3.076216 -3.289852,3.076216 z m 0.03909,-4.775318 h -2.130083 v 3.397212 h 2.130083 c 1.116665,0 1.754187,-0.916425 1.754187,-1.69811 0,-0.766825 -0.637522,-1.699102 -1.754187,-1.699102 z m 9.245065,1.423679 c -1.080579,0 -2.204261,-0.471588 -2.666364,-1.516807 l 1.327168,-0.549855 c 0.285681,0.549855 0.810935,0.728186 1.36626,0.728186 0.775852,0 1.56273,-0.460689 1.57476,-1.274079 v -0.104026 c -0.270647,0.154554 -0.85003,0.383412 -1.562731,0.383412 -1.429411,0 -2.885888,-0.777723 -2.885888,-2.229142 0,-1.327578 1.170795,-2.182577 2.486936,-2.182577 1.006402,0 1.561727,0.4488 1.910563,0.970915 h 0.0511 v -0.765834 h 1.44445 v 3.800439 c 0,1.756564 -1.32717,2.739368 -3.046274,2.739368 z m -0.180431,-5.429199 c -0.489167,0 -1.170794,0.239756 -1.170794,0.839148 0,0.766825 0.850028,1.061071 1.585784,1.061071 0.658572,0 0.967309,-0.143655 1.367265,-0.332885 -0.11728,-0.917416 -0.916188,-1.567334 -1.782255,-1.567334 z m 8.489265,5.212229 -1.7191,-4.294813 h -0.0511 l -1.77724,4.294813 H 101.795 l 2.67038,-6.001841 -1.52364,-3.33975 h 1.56273 l 4.11482,9.341591 z M 93.474144,15.851676 h 1.499579 v 9.907298 h -1.499579 z" /><g
       id="g48"
       transform="matrix(1.0023923,0,0,0.99072975,-0.29664813,4.0398748e-8)"><path
         inkscape:connector-curvature="0"
         id="path64"
         style="fill:url(#linearGradient50);fill-opacity:1;fill-rule:nonzero;stroke:none"
         d="M 16.348,33.969 C 16.113,33.723 15.977,33.34 15.977,32.844 V 15.152 c 0,-0.496 0.136,-0.879 0.371,-1.125 l 0.058,-0.054 9.914,9.91 v 0.234 l -9.914,9.91 z" /></g><g
       id="g66"
       transform="matrix(1.0023923,0,0,0.99072975,-0.29664813,4.0398748e-8)"><path
         inkscape:connector-curvature="0"
         id="path78"
         style="fill:url(#linearGradient68);fill-opacity:1;fill-rule:nonzero;stroke:none"
         d="m 29.621,20.578 -3.301,3.305 v 0.234 l 3.305,3.305 0.074,-0.043 3.914,-2.227 c 1.117,-0.632 1.117,-1.672 0,-2.308 l -3.914,-2.223 z" /></g><g
       id="g80"
       transform="matrix(1.0023923,0,0,0.99072975,-0.29664813,4.0398748e-8)"><path
         inkscape:connector-curvature="0"
         id="path88"
         style="fill:url(#linearGradient82);fill-opacity:1;fill-rule:nonzero;stroke:none"
         d="M 29.699,20.621 26.32,24 16.348,14.027 c 0.371,-0.39 0.976,-0.437 1.664,-0.047 l 11.687,6.641" /></g><g
       id="g90"
       transform="matrix(1.0023923,0,0,0.99072975,-0.29664813,4.0398748e-8)"><path
         inkscape:connector-curvature="0"
         id="path104"
         style="fill:url(#linearGradient92);fill-opacity:1;fill-rule:nonzero;stroke:none"
         d="M 29.699,27.379 18.012,34.02 c -0.688,0.386 -1.293,0.339 -1.664,-0.051 L 26.32,24 Z" /></g><path
       style="fill:#000000;fill-opacity:1;stroke:#757a7d;stroke-width:0;stroke-miterlimit:0;stroke-dasharray:none;stroke-opacity:1"
       d=""
       id="path419"
       inkscape:connector-curvature="0"
       transform="matrix(0.8,0,0,-0.8,7.53981,39.8802)" /><path
       style="fill:#000000;fill-opacity:1;stroke:#757a7d;stroke-width:0;stroke-miterlimit:0;stroke-dasharray:none;stroke-opacity:1"
       d="m 36.539265,1.0228442 c 17.293224,-0.018323 45.55208,-0.018323 62.797458,6e-7 17.245377,0.018324 3.096377,0.033315 -31.442226,0.033315 -34.538601,-3e-7 -48.648456,-0.014992 -31.355232,-0.033316 z"
       id="path532"
       inkscape:connector-curvature="0"
       transform="matrix(0.8,0,0,-0.8,7.53981,39.8802)" /></g></svg>